# ProBuilder 4.4.0
# https://unity3d.com/unity/features/worldbuilding/probuilder
# 21.11.2020 18:01:48

mtllib ./TowerMesh.mtl
o TowerMesh

g TowerMesh
v 0 0 -1
v -1 0 -1
v 0 0 0
v -1 0 0
v -0.5 2.926797 -0.4912809
v -0.25 2.926797 -0.4912809
v -0.25 2.941189 -0.3671122
v -0.25 2.955581 -0.2429434
v -0.375 2.955581 -0.2429434
v -0.5 2.955581 -0.2429434
v -0.125 2.926797 -0.4912809
v -0.125 2.941189 -0.3671122
v 0 2.926797 -0.4912809
v 0 2.941189 -0.3671122
v 0 3.091643 -0.3845503
v 0 3.106034 -0.2603815
v -0.125 3.106034 -0.2603815
v -0.125 3.091643 -0.3845503
v -0.125 2.955581 -0.2429434
v -0.125 2.969972 -0.1187746
v -0.25 2.969972 -0.1187746
v 0 2.955581 -0.2429434
v 0 2.969972 -0.1187746
v 0 3.120426 -0.1362128
v 0 3.134818 -0.01204401
v -0.125 3.134818 -0.01204401
v -0.125 3.120426 -0.1362128
v -0.125 2.984364 0.005394101
v -0.25 2.984364 0.005394101
v -0.375 2.969972 -0.1187746
v -0.5 2.969972 -0.1187746
v -0.375 2.984364 0.005394101
v -0.375 3.134818 -0.01204401
v -0.5 3.134818 -0.01204401
v -0.5 3.120426 -0.1362128
v -0.375 3.120426 -0.1362128
v -1 3.077251 -0.5087191
v -0.875 3.077251 -0.5087191
v -0.875 3.091643 -0.3845503
v -1 3.091643 -0.3845503
v -0.875 2.926797 -0.4912809
v -0.75 2.926797 -0.4912809
v -0.75 2.941189 -0.3671122
v -0.875 2.941189 -0.3671122
v -0.75 2.955581 -0.2429434
v -0.875 2.955581 -0.2429434
v -1 2.955581 -0.2429434
v -1 2.941189 -0.3671122
v -0.625 2.955581 -0.2429434
v -0.625 2.969972 -0.1187746
v -0.75 2.969972 -0.1187746
v -0.5 2.984364 0.005394101
v -0.625 2.984364 0.005394101
v -0.625 3.134818 -0.01204401
v -0.75 3.134818 -0.01204401
v -0.75 3.120426 -0.1362128
v -0.625 3.120426 -0.1362128
v -0.875 2.969972 -0.1187746
v -1 2.969972 -0.1187746
v -0.75 2.984364 0.005394101
v -0.875 2.984364 0.005394101
v -0.875 3.134818 -0.01204401
v -1 3.134818 -0.01204401
v -1 3.120426 -0.1362128
v -0.875 3.120426 -0.1362128
v -1 3.019685 -1.005394
v -0.875 3.019685 -1.005394
v -0.875 3.034076 -0.8812254
v -1 3.034076 -0.8812254
v -0.875 2.869231 -0.987956
v -0.75 2.869231 -0.987956
v -0.75 2.883623 -0.8637872
v -0.875 2.883623 -0.8637872
v -0.75 2.898014 -0.7396185
v -0.875 2.898014 -0.7396185
v -1 2.898014 -0.7396185
v -1 2.883623 -0.8637872
v -0.625 2.869231 -0.987956
v -0.625 2.883623 -0.8637872
v -0.625 3.019685 -1.005394
v -0.5 3.019685 -1.005394
v -0.5 3.034076 -0.8812254
v -0.625 3.034076 -0.8812254
v -0.5 2.883623 -0.8637872
v -0.5 2.898014 -0.7396185
v -0.625 2.898014 -0.7396185
v -0.75 2.912405 -0.6154497
v -1 3.048468 -0.7570566
v -0.875 3.048468 -0.7570566
v -0.875 3.06286 -0.6328878
v -1 3.06286 -0.6328878
v -0.875 2.912405 -0.6154497
v -1 2.926797 -0.4912809
v -1 2.912405 -0.6154497
v -0.5 2.869231 -0.987956
v -0.375 2.869231 -0.987956
v -0.375 2.883623 -0.8637872
v -0.375 3.019685 -1.005394
v -0.25 3.019685 -1.005394
v -0.25 3.034076 -0.8812254
v -0.375 3.034076 -0.8812254
v -0.25 2.883623 -0.8637872
v -0.25 2.898014 -0.7396185
v -0.375 2.898014 -0.7396185
v -0.25 2.869231 -0.987956
v -0.125 2.869231 -0.987956
v -0.125 2.883623 -0.8637872
v -0.125 3.019685 -1.005394
v 0 3.019685 -1.005394
v 0 3.034076 -0.8812254
v -0.125 3.034076 -0.8812254
v 0 2.883623 -0.8637872
v 0 2.898014 -0.7396185
v -0.125 2.898014 -0.7396185
v -0.125 2.912405 -0.6154497
v -0.25 2.912405 -0.6154497
v 0 2.912405 -0.6154497
v 0 3.06286 -0.6328878
v 0 3.077251 -0.5087191
v -0.125 3.077251 -0.5087191
v -0.125 3.06286 -0.6328878
v -1 2.869231 -0.987956
v -1 2.984364 0.005394101
v 0 2.869231 -0.987956
v 0 2.984364 0.005394101
v 0.09323525 2.41696 -0.06536001
v -0.9067647 2.41696 -0.06536001
v -0.9067647 2.41696 -1.06536
v 0.09323525 2.41696 -1.06536
v -0.98 0.8144505 -0.02000001
v -0.02000001 0.8144505 -0.02000001
v -0.98 0.8144505 -0.98
v -0.02000001 0.8144505 -0.98
v -0.9979053 1.716089 0.05834675
v 0.04209471 1.716089 0.05834675
v -0.9979053 1.716089 -0.9816532
v 0.04209471 1.716089 -0.9816532

vt 0 -1
vt -1 -1
vt 0 0
vt -1 0
vt 0.5 -0.1510444
vt 0.25 -0.1510444
vt 0.25 -0.02604444
vt 0.25 0.09895558
vt 0.375 0.09895558
vt 0.5 0.09895558
vt 0.125 -0.1510444
vt 0.125 -0.02604444
vt -6.38361E-11 -0.1510444
vt -6.414999E-11 -0.02604444
vt 0 0.09895202
vt 0.125 0.09895202
vt 0.125 0.2239556
vt 0.25 0.2239556
vt -6.477778E-11 0.2239556
vt 0 0.3489519
vt 0.125 0.3489519
vt 0.25 0.3489555
vt 0.375 0.2239556
vt 0.5 0.2239556
vt 0.375 0.3489555
vt 0.5 0.3489519
vt 1 -0.151048
vt 0.875 -0.151048
vt 0.875 -0.02604804
vt 1 -0.02604804
vt 0.75 -0.1510444
vt 0.75 -0.02604444
vt 0.75 0.09895558
vt 0.875 0.09895558
vt 1 0.09895558
vt 0.625 0.09895558
vt 0.625 0.2239556
vt 0.75 0.2239556
vt 0.625 0.3489555
vt 0.75 0.3489519
vt 0.875 0.2239556
vt 1 0.2239556
vt 0.875 0.3489555
vt 1 0.3489519
vt 1 -0.6510478
vt 0.875 -0.6510478
vt 0.875 -0.5260479
vt 1 -0.5260479
vt 0.75 -0.6510445
vt 0.75 -0.5260444
vt 0.75 -0.4010445
vt 0.875 -0.4010445
vt 1 -0.4010445
vt 0.625 -0.6510445
vt 0.625 -0.5260444
vt 0.5 -0.6510478
vt 0.5 -0.5260479
vt 0.5 -0.4010445
vt 0.625 -0.4010445
vt 0.75 -0.2760444
vt 0.875 -0.276048
vt 1 -0.276048
vt 0.375 -0.6510445
vt 0.375 -0.5260444
vt 0.25 -0.6510478
vt 0.25 -0.5260479
vt 0.25 -0.4010445
vt 0.375 -0.4010445
vt 0.125 -0.6510445
vt 0.125 -0.5260444
vt 0 -0.6510478
vt 0 -0.5260479
vt -6.320831E-11 -0.4010445
vt 0.125 -0.4010445
vt 0.125 -0.2760444
vt 0.25 -0.2760444
vt -6.35222E-11 -0.2760444
vt 1 2.963897
vt 0.875 2.963897
vt 1 3.115358
vt 0.875 3.115358
vt 0.987956 2.869231
vt 0.8637872 2.883623
vt 1.005394 3.019685
vt 0.8812254 3.034076
vt -0.8637872 2.883623
vt -0.987956 2.869231
vt -0.8812254 3.034076
vt -1.005394 3.019685
vt -0.875 2.963897
vt -1 2.963897
vt -0.875 3.115358
vt -1 3.115358
vt 0.7396185 2.898014
vt 0.6154497 2.912405
vt 0.7570566 3.048468
vt 0.6328878 3.06286
vt -0.6154497 2.912405
vt -0.7396185 2.898014
vt -0.6328878 3.06286
vt -0.7570566 3.048468
vt 0.4912809 2.926797
vt 0.3671122 2.941189
vt 0.5087191 3.077251
vt 0.3845503 3.091643
vt -0.3671122 2.941189
vt -0.4912809 2.926797
vt -0.3845503 3.091643
vt -0.5087191 3.077251
vt 0.1187746 2.969972
vt -0.005394101 2.984364
vt 0.1362128 3.120426
vt 0.01204401 3.134818
vt 0.005394101 2.984364
vt -0.1187746 2.969972
vt -0.01204401 3.134818
vt -0.1362128 3.120426
vt 0.125 2.963897
vt 0 2.963897
vt 0.125 3.115358
vt 0 3.115358
vt -0.125 2.963897
vt -0.125 3.115358
vt 0.625 2.963897
vt 0.5 2.963897
vt 0.625 3.115358
vt 0.5 3.115358
vt -0.5 2.963897
vt -0.625 2.963897
vt -0.5 3.115358
vt -0.625 3.115358
vt 0.375 2.963897
vt 0.25 2.963897
vt 0.375 3.115358
vt 0.25 3.115358
vt -0.25 2.963897
vt -0.375 2.963897
vt -0.25 3.115358
vt -0.375 3.115358
vt 0.2429434 2.955581
vt 0.2603815 3.106034
vt -0.2429434 2.955581
vt -0.2603815 3.106034
vt 0.75 2.963897
vt 0.75 3.115358
vt -0.75 2.963897
vt -0.75 3.115358
vt 2.928569E-12 2.984366
vt 0.09323525 2.416752
vt -0.9067647 2.416752
vt -1 2.984366
vt -0.875 2.984366
vt -0.75 2.984366
vt -0.625 2.984366
vt -0.5 2.984366
vt -0.375 2.984366
vt -0.25 2.984366
vt -0.125 2.984366
vt 0.002007967 2.995812
vt -0.06843003 2.427358
vt -1.068424 2.427318
vt -0.9913364 2.880648
vt -0.8671684 2.895044
vt -0.7430003 2.909439
vt -0.6188322 2.923834
vt -0.4946642 2.93823
vt -0.3704962 2.952626
vt -0.2463281 2.967021
vt -0.12216 2.981417
vt 0.875 2.85067
vt 1 2.85067
vt 0.9067647 2.397058
vt -0.09323525 2.397058
vt 1.366479E-10 2.85067
vt 0.125 2.85067
vt 0.25 2.85067
vt 0.375 2.85067
vt 0.5 2.85067
vt 0.625 2.85067
vt 0.75 2.85067
vt 0.8637823 2.883214
vt 0.9879503 2.868818
vt 1.065039 2.415122
vt 0.06504421 2.415176
vt -0.00539407 2.983989
vt 0.242942 2.955197
vt 0.3671101 2.9408
vt 0.4912781 2.926404
vt 0.7396142 2.897611
vt -0.98 0.8143867
vt -0.02000001 0.8143867
vt -0.003386103 0.01165091
vt -1.00338 0.01161146
vt -0.9833127 0.8257744
vt -0.02331828 0.8258123
vt 1.383138E-10 -0.01830076
vt 0.02000001 0.7963793
vt 0.98 0.7963793
vt 1 -0.01830076
vt 0.02006756 0.814664
vt 0.980062 0.8146126
vt 0.9999943 -5.359322E-05
vt -0.9979053 1.716256
vt 0.04209471 1.716256
vt -0.9850265 1.72756
vt 0.0549674 1.727601
vt 0.9979053 1.697836
vt -0.04209471 1.697836
vt 0.9815052 1.715154
vt -0.05848882 1.71521

vn 0 -1 0
vn 4.210366E-07 0.9933501 -0.1151329
vn 0 -0.1151325 -0.9933501
vn 1 0 0
vn -1 0 0
vn 0 0.1151333 0.9933501
vn 0 -0.1237397 0.9923148
vn -0.9862049 -0.1644287 0.01905764
vn -0.9857013 -0.1675208 0.01524623
vn -0.9793869 -0.2005856 0.0190787
vn -0.9783119 -0.2057597 0.02384878
vn -0.9827345 -0.1833594 0.01430216
vn 0 0.1686926 -0.9856687
vn 0.978312 0.2057596 -0.02384836
vn 0.9793869 0.2005856 -0.0190787
vn 0.9857013 0.1675208 -0.01524623
vn 0.9862049 0.1644287 -0.01905764
vn 0.9827345 0.1833594 -0.01430216
vn 0 0.02454905 0.9996986
vn -0.9996986 0.02454901 0
vn 0 0.02454908 -0.9996986
vn 0.9996986 0.02454905 0
vn 0 -0.08656758 0.996246
vn 0 0.1738175 0.9847779
vn -0.9998029 -0.01985464 0
vn -0.9916507 0.1289532 0
vn 0 -0.1185898 -0.9929433
vn 0 -0.001833608 -0.9999983
vn 0.9973485 -0.07277367 0
vn 0.997637 -0.06870604 0

usemtl RaycastTestMat
f 9/9/2 5/5/2 10/10/2
f 7/7/2 6/6/2 5/5/2
f 5/5/2 9/9/2 7/7/2
f 9/9/2 8/8/2 7/7/2
f 49/36/2 43/32/2 45/33/2
f 5/5/2 42/31/2 43/32/2
f 43/32/2 49/36/2 5/5/2
f 49/36/2 10/10/2 5/5/2
f 5/5/2 85/58/2 86/59/2
f 86/59/2 74/51/2 87/60/2
f 5/5/2 86/59/2 87/60/2
f 5/5/2 87/60/2 42/31/2
f 104/68/2 85/58/2 5/5/2
f 116/76/2 103/67/2 104/68/2
f 5/5/2 116/76/2 104/68/2
f 5/5/2 6/6/2 116/76/2
f 28/158/7 126/149/7 125/148/7
f 28/158/7 29/157/7 126/149/7
f 29/157/7 32/156/7 126/149/7
f 32/156/7 52/155/7 126/149/7
f 126/149/7 52/155/7 127/150/7
f 127/150/7 52/155/7 53/154/7
f 127/150/7 53/154/7 60/153/7
f 127/150/7 60/153/7 61/152/7
f 61/152/7 123/151/7 127/150/7
f 59/169/8 127/160/9 123/159/8
f 59/169/8 47/168/8 127/160/9
f 47/168/8 48/167/8 127/160/9
f 48/167/8 93/166/12 127/160/9
f 127/160/9 93/166/12 128/161/10
f 128/161/10 93/166/12 94/165/11
f 128/161/10 94/165/11 76/164/11
f 128/161/10 76/164/11 77/163/11
f 77/163/11 122/162/11 128/161/10
f 128/172/13 122/171/13 70/170/13
f 70/170/13 71/180/13 128/172/13
f 71/180/13 78/179/13 128/172/13
f 78/179/13 95/178/13 128/172/13
f 128/172/13 95/178/13 129/173/13
f 129/173/13 95/178/13 96/177/13
f 129/173/13 96/177/13 105/176/13
f 129/173/13 105/176/13 106/175/13
f 124/174/13 129/173/13 106/175/13
f 129/183/15 124/182/14 112/181/14
f 112/181/14 113/189/14 129/183/15
f 113/189/14 117/95/14 129/183/15
f 117/95/14 13/188/18 129/183/15
f 129/183/15 13/188/18 126/184/16
f 126/184/16 13/188/18 14/187/17
f 126/184/16 14/187/17 22/186/17
f 126/184/16 22/186/17 23/110/17
f 125/185/17 126/184/16 23/110/17
f 4/4/1 2/2/1 1/1/1
f 1/1/1 3/3/1 4/4/1
f 12/12/2 11/11/2 6/6/2
f 6/6/2 7/7/2 12/12/2
f 14/14/2 13/13/2 11/11/2
f 11/11/2 12/12/2 14/14/2
f 16/15/2 15/14/2 18/12/2
f 18/12/2 17/16/2 16/15/2
f 19/16/2 12/12/2 7/7/2
f 7/7/2 8/8/2 19/16/2
f 20/17/2 19/16/2 8/8/2
f 8/8/2 21/18/2 20/17/2
f 23/19/2 22/15/2 19/16/2
f 19/16/2 20/17/2 23/19/2
f 25/20/2 24/19/2 27/17/2
f 27/17/2 26/21/2 25/20/2
f 28/21/2 20/17/2 21/18/2
f 21/18/2 29/22/2 28/21/2
f 30/23/2 9/9/2 10/10/2
f 10/10/2 31/24/2 30/23/2
f 21/18/2 8/8/2 9/9/2
f 9/9/2 30/23/2 21/18/2
f 29/22/2 21/18/2 30/23/2
f 30/23/2 32/25/2 29/22/2
f 33/25/2 36/23/2 35/24/2
f 35/24/2 34/26/2 33/25/2
f 39/29/2 38/28/2 37/27/2
f 37/27/2 40/30/2 39/29/2
f 43/32/2 42/31/2 41/28/2
f 41/28/2 44/29/2 43/32/2
f 45/33/2 43/32/2 44/29/2
f 44/29/2 46/34/2 45/33/2
f 46/34/2 44/29/2 48/30/2
f 48/30/2 47/35/2 46/34/2
f 50/37/2 49/36/2 45/33/2
f 45/33/2 51/38/2 50/37/2
f 31/24/2 10/10/2 49/36/2
f 49/36/2 50/37/2 31/24/2
f 52/26/2 31/24/2 50/37/2
f 50/37/2 53/39/2 52/26/2
f 54/39/2 57/37/2 56/38/2
f 56/38/2 55/40/2 54/39/2
f 58/41/2 46/34/2 47/35/2
f 47/35/2 59/42/2 58/41/2
f 51/38/2 45/33/2 46/34/2
f 46/34/2 58/41/2 51/38/2
f 60/40/2 51/38/2 58/41/2
f 58/41/2 61/43/2 60/40/2
f 62/43/2 65/41/2 64/42/2
f 64/42/2 63/44/2 62/43/2
f 68/47/2 67/46/2 66/45/2
f 66/45/2 69/48/2 68/47/2
f 72/50/2 71/49/2 70/46/2
f 70/46/2 73/47/2 72/50/2
f 74/51/2 72/50/2 73/47/2
f 73/47/2 75/52/2 74/51/2
f 75/52/2 73/47/2 77/48/2
f 77/48/2 76/53/2 75/52/2
f 79/55/2 78/54/2 71/49/2
f 71/49/2 72/50/2 79/55/2
f 82/57/2 81/56/2 80/54/2
f 80/54/2 83/55/2 82/57/2
f 85/58/2 84/57/2 79/55/2
f 79/55/2 86/59/2 85/58/2
f 86/59/2 79/55/2 72/50/2
f 72/50/2 74/51/2 86/59/2
f 90/61/2 89/52/2 88/53/2
f 88/53/2 91/62/2 90/61/2
f 87/60/2 74/51/2 75/52/2
f 75/52/2 92/61/2 87/60/2
f 42/31/2 87/60/2 92/61/2
f 92/61/2 41/28/2 42/31/2
f 41/28/2 92/61/2 94/62/2
f 94/62/2 93/27/2 41/28/2
f 97/64/2 96/63/2 95/56/2
f 95/56/2 84/57/2 97/64/2
f 100/66/2 99/65/2 98/63/2
f 98/63/2 101/64/2 100/66/2
f 103/67/2 102/66/2 97/64/2
f 97/64/2 104/68/2 103/67/2
f 104/68/2 97/64/2 84/57/2
f 84/57/2 85/58/2 104/68/2
f 107/70/2 106/69/2 105/65/2
f 105/65/2 102/66/2 107/70/2
f 110/72/2 109/71/2 108/69/2
f 108/69/2 111/70/2 110/72/2
f 113/73/2 112/72/2 107/70/2
f 107/70/2 114/74/2 113/73/2
f 114/74/2 107/70/2 102/66/2
f 102/66/2 103/67/2 114/74/2
f 115/75/2 114/74/2 103/67/2
f 103/67/2 116/76/2 115/75/2
f 117/77/2 113/73/2 114/74/2
f 114/74/2 115/75/2 117/77/2
f 119/13/2 118/77/2 121/75/2
f 121/75/2 120/11/2 119/13/2
f 11/11/2 115/75/2 116/76/2
f 116/76/2 6/6/2 11/11/2
f 67/81/3 70/79/3 122/78/3
f 122/78/3 66/80/3 67/81/3
f 68/85/4 73/83/4 70/82/4
f 70/82/4 67/84/4 68/85/4
f 66/89/5 122/87/5 77/86/5
f 77/86/5 69/88/5 66/89/5
f 69/93/6 77/91/6 73/90/6
f 73/90/6 68/92/6 69/93/6
f 89/81/3 75/79/3 76/78/3
f 76/78/3 88/80/3 89/81/3
f 90/97/4 92/95/4 75/94/4
f 75/94/4 89/96/4 90/97/4
f 88/101/5 76/99/5 94/98/5
f 94/98/5 91/100/5 88/101/5
f 91/93/6 94/91/6 92/90/6
f 92/90/6 90/92/6 91/93/6
f 38/81/3 41/79/3 93/78/3
f 93/78/3 37/80/3 38/81/3
f 39/105/4 44/103/4 41/102/4
f 41/102/4 38/104/4 39/105/4
f 37/109/5 93/107/5 48/106/5
f 48/106/5 40/108/5 37/109/5
f 40/93/6 48/91/6 44/90/6
f 44/90/6 39/92/6 40/93/6
f 65/81/3 58/79/3 59/78/3
f 59/78/3 64/80/3 65/81/3
f 62/113/4 61/111/4 58/110/4
f 58/110/4 65/112/4 62/113/4
f 64/117/5 59/115/5 123/114/5
f 123/114/5 63/116/5 64/117/5
f 63/93/6 123/91/6 61/90/6
f 61/90/6 62/92/6 63/93/6
f 109/121/3 124/119/3 106/118/3
f 106/118/3 108/120/3 109/121/3
f 110/85/4 112/83/4 124/82/4
f 124/82/4 109/84/4 110/85/4
f 108/89/5 106/87/5 107/86/5
f 107/86/5 111/88/5 108/89/5
f 111/123/6 107/122/6 112/119/6
f 112/119/6 110/121/6 111/123/6
f 24/121/3 23/119/3 20/118/3
f 20/118/3 27/120/3 24/121/3
f 25/113/4 125/111/4 23/110/4
f 23/110/4 24/112/4 25/113/4
f 27/117/5 20/115/5 28/114/5
f 28/114/5 26/116/5 27/117/5
f 26/123/6 28/122/6 125/119/6
f 125/119/6 25/121/6 26/123/6
f 81/127/3 95/125/3 78/124/3
f 78/124/3 80/126/3 81/127/3
f 82/85/4 84/83/4 95/82/4
f 95/82/4 81/84/4 82/85/4
f 80/89/5 78/87/5 79/86/5
f 79/86/5 83/88/5 80/89/5
f 83/131/6 79/129/6 84/128/6
f 84/128/6 82/130/6 83/131/6
f 99/135/3 105/133/3 96/132/3
f 96/132/3 98/134/3 99/135/3
f 100/85/4 102/83/4 105/82/4
f 105/82/4 99/84/4 100/85/4
f 98/89/5 96/87/5 97/86/5
f 97/86/5 101/88/5 98/89/5
f 101/139/6 97/137/6 102/136/6
f 102/136/6 100/138/6 101/139/6
f 118/121/3 117/119/3 115/118/3
f 115/118/3 121/120/3 118/121/3
f 119/104/4 13/102/4 117/95/4
f 117/95/4 118/97/4 119/104/4
f 121/100/5 115/98/5 11/107/5
f 11/107/5 120/109/5 121/100/5
f 120/123/6 11/122/6 13/119/6
f 13/119/6 119/121/6 120/123/6
f 15/121/3 14/119/3 12/118/3
f 12/118/3 18/120/3 15/121/3
f 16/141/4 22/140/4 14/103/4
f 14/103/4 15/105/4 16/141/4
f 18/108/5 12/106/5 19/142/5
f 19/142/5 17/143/5 18/108/5
f 17/123/6 19/122/6 22/119/6
f 22/119/6 16/121/6 17/123/6
f 36/134/3 30/132/3 31/125/3
f 31/125/3 35/127/3 36/134/3
f 33/113/4 32/111/4 30/110/4
f 30/110/4 36/112/4 33/113/4
f 35/117/5 31/115/5 52/114/5
f 52/114/5 34/116/5 35/117/5
f 34/130/6 52/128/6 32/137/6
f 32/137/6 33/139/6 34/130/6
f 57/126/3 50/124/3 51/144/3
f 51/144/3 56/145/3 57/126/3
f 54/113/4 53/111/4 50/110/4
f 50/110/4 57/112/4 54/113/4
f 56/117/5 51/115/5 60/114/5
f 60/114/5 55/116/5 56/117/5
f 55/147/6 60/146/6 53/129/6
f 53/129/6 54/131/6 55/147/6
f 130/190/19 4/4/19 3/3/19
f 3/3/19 131/191/19 130/190/19
f 132/194/20 2/193/20 4/192/20
f 4/192/20 130/195/20 132/194/20
f 2/199/21 132/198/21 133/197/21
f 133/197/21 1/196/21 2/199/21
f 1/202/22 133/201/22 131/200/22
f 131/200/22 3/3/22 1/202/22
f 134/203/23 130/190/23 131/191/23
f 131/191/23 135/204/23 134/203/23
f 127/150/24 134/203/24 135/204/24
f 135/204/24 126/149/24 127/150/24
f 136/205/25 132/194/25 130/195/25
f 130/195/25 134/206/25 136/205/25
f 128/161/26 136/205/26 134/206/26
f 134/206/26 127/160/26 128/161/26
f 136/207/27 128/172/27 129/173/27
f 129/173/27 137/208/27 136/207/27
f 132/198/28 136/207/28 137/208/28
f 137/208/28 133/197/28 132/198/28
f 137/209/29 129/183/29 126/184/29
f 126/184/29 135/210/29 137/209/29
f 133/201/30 137/209/30 135/210/30
f 135/210/30 131/200/30 133/201/30

